<?xml version="1.0" encoding="utf-8"?>
<!-- Generator: Adobe Illustrator 21.0.0, SVG Export Plug-In . SVG Version: 6.00 Build 0)  -->
<svg version="1.1" id="Layer_1" xmlns="http://www.w3.org/2000/svg" xmlns:xlink="http://www.w3.org/1999/xlink" x="0px" y="0px"
	 viewBox="0 0 512 512" style="enable-background:new 0 0 512 512;" xml:space="preserve">
	 <defs>
        <filter id="filter" x="0" y="0">
          <feGaussianBlur in="SourceGraphic" stdDeviation="15" />
        </filter>
      </defs>
<g>
	<path  d="M256,0c-33,0-61.3,20.5-73,49.4c-10.4-6.3-22.4-10-35.3-10c-38,0-68.9,30.9-68.9,68.9v128v39.4H49.2
		C22.1,275.7,0,297.8,0,324.9c0,13.5,5.4,26,15.2,35.5l97.5,93.7C151.5,491.5,202.4,512,256,512s104.5-20.5,143.3-57.9l97.6-93.7
		c9.8-9.4,15.2-22,15.2-35.5c0-27.2-22.1-49.2-49.2-49.2h-29.5v-39.4v-128c0-38-30.9-68.9-68.9-68.9c-13,0-25,3.8-35.3,10
		C317.3,20.5,289,0,256,0z M256,39.4c21.7,0,39.4,17.7,39.4,39.4v157.5h39.4v-128c0-16.3,13.3-29.5,29.5-29.5
		c16.3,0,29.5,13.3,29.5,29.5v128v59.1v19.7h68.9c5.4,0,9.8,4.4,9.8,9.8c0,3.6-1.9,6-3,7.1L372,425.7c-31.4,30.3-72.6,46.9-116,46.9
		s-84.6-16.7-116-46.9L42.5,332c-1.1-1.1-3.1-3.5-3.1-7.1c0-5.4,4.4-9.8,9.8-9.8h68.9v-19.7v-59.1v-128c0-16.3,13.2-29.5,29.5-29.5
		s29.5,13.3,29.5,29.5v128h39.4v-128V78.8C216.6,57,234.3,39.4,256,39.4z M256,275.7c-68.8,0-113,65.1-114.8,67.8l-7.3,10.9
		l7.3,10.9c1.9,2.8,46,67.8,114.8,67.8s113-65.1,114.8-67.8l7.3-10.9l-7.3-10.9C369,340.8,324.8,275.7,256,275.7z M256,315.1
		c33.4,0,60.2,24.6,73.3,39.4c-13.1,14.8-40,39.4-73.3,39.4c-33.4,0-60.2-24.6-73.3-39.4C195.8,339.7,222.6,315.1,256,315.1z
		 M256,334.8c-10.9,0-19.7,8.8-19.7,19.7s8.8,19.7,19.7,19.7s19.7-8.8,19.7-19.7S266.9,334.8,256,334.8z"/>
</g>
</svg>
