<svg viewBox="0 0 32 32" id="crescentmoon_Light" data-name="crescentmoon/Light" xmlns="http://www.w3.org/2000/svg">
  <path id="Path-2" data-name="Path" d="M0,0H12V2H6V4H4V2H0Z" transform="translate(8)"/>
  <path id="Path-4" data-name="Path" d="M0,0H4V2H0Z" transform="translate(20 2)"/>
  <path id="Path-5" data-name="Path" d="M0,0H2V2H0Z" transform="translate(14 4)"/>
  <path id="Path-6" data-name="Path" d="M0,0H2V2H0Z" transform="translate(24 4)"/>
  <path id="Path-7" data-name="Path" d="M0,0H2V2H0Z" transform="translate(6 6)"/>
  <path id="Path-8" data-name="Path" d="M0,0H2V2H0Z" transform="translate(16 6)"/>
  <path id="Path-9" data-name="Path" d="M0,0H2V4H0Z" transform="translate(26 6)"/>
  <path id="Path-10" data-name="Path" d="M2,0H4V4H0V2H2Z" transform="translate(2 8)"/>
  <path id="Path-12" data-name="Path" d="M0,0H2V2H4V4H0Z" transform="translate(8 8)"/>
  <path id="Path-13" data-name="Path" d="M2,0H4V6H6V8H0V6H2Z" transform="translate(16 8)"/>
  <path id="Path-14" data-name="Path" d="M0,0H2V10H0Z" transform="translate(28 10)"/>
  <path id="Path-15" data-name="Path" d="M0,0H2V2H0Z" transform="translate(0 12)"/>
  <path id="Path-16" data-name="Path" d="M0,0H2V2H0Z" transform="translate(12 12)"/>
  <path id="Path-17" data-name="Path" d="M0,0H4V4H2V2H0Z" transform="translate(22 12)"/>
  <path id="Path-18" data-name="Path" d="M0,0H4V4H2V2H0Z" transform="translate(2 14)"/>
  <path id="Path-19" data-name="Path" d="M0,0H4V2H2V4H0Z" transform="translate(8 14)"/>
  <path id="Path-20" data-name="Path" d="M0,0H2V2H4V6H6V8H2V4H0Z" transform="translate(14 16)"/>
  <path id="Path-21" data-name="Path" d="M0,0H2V2H0Z" transform="translate(6 18)"/>
  <path id="Path-22" data-name="Path" d="M0,0H2V4H0Z" transform="translate(26 20)"/>
  <path id="Path-23" data-name="Path" d="M0,0H2V2H0Z" transform="translate(14 24)"/>
  <path id="Path-24" data-name="Path" d="M0,0H2V2H0Z" transform="translate(24 24)"/>
  <path id="Path-25" data-name="Path" d="M4,0H6V2h6V4H0V2H4Z" transform="translate(8 26)"/>
  <path id="Path-26" data-name="Path" d="M0,0H4V2H0Z" transform="translate(20 26)"/>
  <path id="Path-27" data-name="Path" d="M0,0H4V2H0Z" transform="translate(2 28)"/>
</svg>
