<?xml version="1.0" encoding="iso-8859-1"?>
<!-- Generator: Adobe Illustrator 19.0.0, SVG Export Plug-In . SVG Version: 6.00 Build 0)  -->
<svg version="1.1" id="Layer_1" xmlns="http://www.w3.org/2000/svg" xmlns:xlink="http://www.w3.org/1999/xlink" x="0px" y="0px"
	 viewBox="0 0 472.615 472.615" style="enable-background:new 0 0 472.615 472.615;" xml:space="preserve">
	<path d="M355.482,63.094h13.504c4.222,24.627,25.538,43.411,51.368,43.411c28.862,0,52.261-23.398,52.261-52.261v-1.984
		C472.615,23.396,449.217,0,420.355,0c-25.827,0-47.142,18.78-51.367,43.402h-13.505c-34.25,0-62.106,28.308-62.106,63.106V226.46
		h-91.883c-4.869-52.212-47.99-93.06-100.503-93.06C45.215,133.4,0,179.474,0,236.308s45.215,102.909,100.991,102.909
		c52.513,0,95.636-40.851,100.503-93.065h91.883v119.962c0,34.788,27.856,63.096,62.106,63.096h13.505
		c4.224,24.625,25.538,43.406,51.367,43.406c28.862,0,52.261-23.398,52.261-52.261v-1.984c0-28.862-23.399-52.259-52.261-52.259
		c-25.829,0-47.145,18.781-51.368,43.407h-13.504c-23.385,0-42.413-19.472-42.413-43.404V246.152h55.917
		c4.223,24.625,25.538,43.409,51.368,43.409c28.862,0,52.261-23.399,52.261-52.259v-1.986c0-28.863-23.399-52.259-52.261-52.259
		c-25.828,0-47.143,18.779-51.367,43.404h-55.918V106.508C313.069,82.565,332.098,63.094,355.482,63.094z"/>
</svg>
