<svg width="32px" height="32px" viewBox="0 0 32 32" id="blackquestionmark_Light" data-name="blackquestionmark/Light" xmlns="http://www.w3.org/2000/svg">
  <path id="Path" d="M0,0H10V2H8V4H6V6H4v6H6v2H8V12h2V10h4v4H12v6h2v2H12v2H10v4h2v2h2v2H0Z" fill="#fff"/>
  <path id="Path-2" data-name="Path" d="M6,0H16V2h2V4h2V6h2v6H20v2H18v2H16v2H14v2H12v2h2v2h2v4H14v2H12v2H10V30H8V28h2V26h2V24H8V22h2V20H8V14h2v4h2V14h2V8H12V6H6V8H4v2H6v2H4v2H2V12H0V6H2V4H4V2H6Z" transform="translate(4)" fill="#1a1a1a"/>
  <path id="Path-3" data-name="Path" d="M4,0H16V32H0V30H2V28H4V24H2V22H0V20H2V18H4V16H6V14H8V12h2V6H8V4H6V2H4Z" transform="translate(16)" fill="#fff"/>
  <path id="Path-4" data-name="Path" d="M0,0H6V2H0Z" transform="translate(10 6)" fill="#fff"/>
  <path id="Path-5" data-name="Path" d="M0,0H2V2H0Z" transform="translate(8 8)" fill="#fff"/>
  <path id="Path-6" data-name="Path" d="M0,0H6V6H4V2H0Z" transform="translate(10 8)" fill="#1a1a1a"/>
  <path id="Path-7" data-name="Path" d="M0,0H2V6H0Z" transform="translate(16 8)" fill="#fff"/>
  <path id="Path-8" data-name="Path" d="M0,0H2V4H0Z" transform="translate(14 14)" fill="#fff"/>
  <path id="Path-9" data-name="Path" d="M0,0H2V4H0Z" transform="translate(10 24)" fill="#1a1a1a"/>
  <path id="Path-10" data-name="Path" d="M0,0H4V2H2V4H0Z" transform="translate(12 24)" fill="#fff"/>
</svg>
