<svg viewBox="0 0 32 32" id="blacksunwithrays_Light" data-name="blacksunwithrays/Light" xmlns="http://www.w3.org/2000/svg">
  <path id="Path-2" data-name="Path" d="M0,0H2V4H0Z" transform="translate(16)"/>
  <path id="Path-3" data-name="Path" d="M0,0H2V2H0Z" transform="translate(2 2)"/>
  <path id="Path-4" data-name="Path" d="M0,0H2V2H0Z" transform="translate(28 2)"/>
  <path id="Path-5" data-name="Path" d="M0,0H2V2H0Z" transform="translate(4 4)"/>
  <path id="Path-6" data-name="Path" d="M0,0H2V2H0Z" transform="translate(26 4)"/>
  <path id="Path-7" data-name="Path" d="M0,0H2V2H0Z" transform="translate(6 6)"/>
  <path id="Path-8" data-name="Path" d="M0,0H8V2H0Z" transform="translate(12 6)"/>
  <path id="Path-9" data-name="Path" d="M0,0H2V2H0Z" transform="translate(24 6)"/>
  <path id="Path-10" data-name="Path" d="M0,0H2V2H0Z" transform="translate(10 8)"/>
  <path id="Path-12" data-name="Path" d="M0,0H2V2H0Z" transform="translate(20 8)"/>
  <path id="Path-13" data-name="Path" d="M0,0H2V2H0Z" transform="translate(8 10)"/>
  <path id="Path-15" data-name="Path" d="M2,0H4V4H0V2H2Z" transform="translate(10 10)"/>
  <path id="Path-16" data-name="Path" d="M2,0H4V2H6V4H2V6H0V2H2Z" transform="translate(16 10)"/>
  <path id="Path-18" data-name="Path" d="M0,0H2V2H0Z" transform="translate(22 10)"/>
  <path id="Path-19" data-name="Path" d="M0,0H2V8H0Z" transform="translate(6 12)"/>
  <path id="Path-20" data-name="Path" d="M0,0H2V8H0Z" transform="translate(24 12)"/>
  <path id="Path-21" data-name="Path" d="M0,0H4V2H0Z" transform="translate(0 16)"/>
  <path id="Path-22" data-name="Path" d="M0,0H4V2H0Z" transform="translate(28 16)"/>
  <path id="Path-23" data-name="Path" d="M0,0H12V2H8V4H4V2H0Z" transform="translate(10 18)"/>
  <path id="Path-24" data-name="Path" d="M0,0H2V2H0Z" transform="translate(8 20)"/>
  <path id="Path-26" data-name="Path" d="M0,0H2V2H0Z" transform="translate(22 20)"/>
  <path id="Path-27" data-name="Path" d="M0,0H2V2H0Z" transform="translate(10 22)"/>
  <path id="Path-28" data-name="Path" d="M0,0H2V2H0Z" transform="translate(20 22)"/>
  <path id="Path-29" data-name="Path" d="M0,0H2V2H0Z" transform="translate(6 24)"/>
  <path id="Path-30" data-name="Path" d="M0,0H8V2H0Z" transform="translate(12 24)"/>
  <path id="Path-31" data-name="Path" d="M0,0H2V2H0Z" transform="translate(24 24)"/>
  <path id="Path-32" data-name="Path" d="M0,0H2V2H0Z" transform="translate(4 26)"/>
  <path id="Path-33" data-name="Path" d="M0,0H2V2H0Z" transform="translate(26 26)"/>
  <path id="Path-34" data-name="Path" d="M0,0H2V2H0Z" transform="translate(2 28)"/>
  <path id="Path-35" data-name="Path" d="M0,0H2V4H0Z" transform="translate(16 28)"/>
  <path id="Path-36" data-name="Path" d="M0,0H2V2H0Z" transform="translate(28 28)"/>
</svg>
