<svg viewBox="0 0 32 32" id="surfer_Light" data-name="surfer/Light" xmlns="http://www.w3.org/2000/svg">
  <path id="Path-2" data-name="Path" d="M6,0h6V2H10V4h6V6H14V8H12v2H10v2H8v2h2v2h2v2H6v4H4V16H2V14H0V12H2V10H4V8H6V6H8V2H6Z" transform="translate(8)"/>
  <path id="Path-4" data-name="Path" d="M0,0H2V2H0Z" transform="translate(28)"/>
  <path id="Path-6" data-name="Path" d="M0,0H2V4H0Z" transform="translate(12 2)"/>
  <path id="Path-8" data-name="Path" d="M0,0H4V2H0Z" transform="translate(24 2)"/>
  <path id="Path-9" data-name="Path" d="M0,0H2V2H0Z" transform="translate(6 14)"/>
  <path id="Path-11" data-name="Path" d="M0,0H2V2H0Z" transform="translate(4 16)"/>
  <path id="Path-12" data-name="Path" d="M0,0H4V2H0Z" transform="translate(0 18)"/>
  <path id="Path-14" data-name="Path" d="M0,0H2V2H8V4H0Z" transform="translate(20 18)"/>
  <path id="Path-15" data-name="Path" d="M6,0H8V2h4V4H6V6H0V4H4V2H6Z" transform="translate(4 22)"/>
  <path id="Path-16" data-name="Path" d="M0,0H4V2H0Z" transform="translate(16 22)"/>
  <path id="Path-18" data-name="Path" d="M0,0H2V2H0Z" transform="translate(28 22)"/>
  <path id="Path-20" data-name="Path" d="M0,0H2V2H0Z" transform="translate(20 24)"/>
  <path id="Path-21" data-name="Path" d="M0,0H2V2H0Z" transform="translate(26 24)"/>
  <path id="Path-22" data-name="Path" d="M0,0H4V2H0Z" transform="translate(22 26)"/>
  <path id="Path-23" data-name="Path" d="M0,0H2V2H0Z" transform="translate(2 28)"/>
  <path id="Path-25" data-name="Path" d="M6,0H8V2h4V4H0V2H6Z" transform="translate(4 28)"/>
  <path id="Path-26" data-name="Path" d="M0,0H6V2H0Z" transform="translate(16 28)"/>
</svg>
